<svg xmlns="http://www.w3.org/2000/svg" version="1.1" width="250px" height="256px" fill="none" viewBox="0 0 256 256" style="shape-rendering:geometricPrecision; text-rendering:geometricPrecision; image-rendering:optimizeQuality; fill-rule:evenodd; clip-rule:evenodd" xmlns:xlink="http://www.w3.org/1999/xlink"><rect width="256" height="256" fill="none" rx="60"/>
<g><path style="opacity:1" fill="#f5f5f5" fill-opacity="0" d="M -0.5,-0.5 C 73.5,-0.5 147.5,-0.5 221.5,-0.5C 221.5,1.5 221.5,3.5 221.5,5.5C 223.5,5.5 225.5,5.5 227.5,5.5C 227.5,7.5 227.5,9.5 227.5,11.5C 225.5,11.5 223.5,11.5 221.5,11.5C 221.5,13.5 221.5,15.5 221.5,17.5C 219.5,17.5 217.5,17.5 215.5,17.5C 215.5,19.5 215.5,21.5 215.5,23.5C 217.5,23.5 219.5,23.5 221.5,23.5C 221.5,25.5 221.5,27.5 221.5,29.5C 219.5,29.5 217.5,29.5 215.5,29.5C 215.5,31.5 215.5,33.5 215.5,35.5C 217.5,35.5 219.5,35.5 221.5,35.5C 221.5,37.5 221.5,39.5 221.5,41.5C 219.5,41.5 217.5,41.5 215.5,41.5C 215.5,43.1667 215.5,44.8333 215.5,46.5C 220.5,45.5 222.5,47.5 221.5,52.5C 219.5,52.5 217.5,52.5 215.5,52.5C 215.5,50.8333 215.5,49.1667 215.5,47.5C 213.5,47.5 211.5,47.5 209.5,47.5C 209.5,49.1667 209.5,50.8333 209.5,52.5C 207.5,52.5 205.5,52.5 203.5,52.5C 203.5,50.8333 203.5,49.1667 203.5,47.5C 201.5,47.5 199.5,47.5 197.5,47.5C 197.5,49.1667 197.5,50.8333 197.5,52.5C 195.5,52.5 193.5,52.5 191.5,52.5C 191.5,50.8333 191.5,49.1667 191.5,47.5C 189.5,47.5 187.5,47.5 185.5,47.5C 185.5,49.1667 185.5,50.8333 185.5,52.5C 183.167,52.5 180.833,52.5 178.5,52.5C 178.552,50.0971 178.219,47.7638 177.5,45.5C 180.096,46.2653 182.763,46.5987 185.5,46.5C 185.5,44.8333 185.5,43.1667 185.5,41.5C 187.5,41.5 189.5,41.5 191.5,41.5C 191.5,39.5 191.5,37.5 191.5,35.5C 189.5,35.5 187.5,35.5 185.5,35.5C 185.5,33.5 185.5,31.5 185.5,29.5C 180.069,30.9064 177.735,28.9064 178.5,23.5C 176.5,23.5 174.5,23.5 172.5,23.5C 172.5,21.5 172.5,19.5 172.5,17.5C 167.832,18.1606 165.832,16.1606 166.5,11.5C 164.5,11.5 162.5,11.5 160.5,11.5C 160.5,12.5 160.5,13.5 160.5,14.5C 158.833,14.5 157.167,14.5 155.5,14.5C 147.249,12.8632 138.916,12.3632 130.5,13C 119.265,22.0005 109.765,32.5005 102,44.5C 100.659,47.022 99.8257,49.6887 99.5,52.5C 101.965,52.767 104.299,53.4336 106.5,54.5C 106.539,55.5832 106.873,56.5832 107.5,57.5C 109.655,58.0014 111.322,59.0014 112.5,60.5C 101.46,63.3732 91.1262,67.8732 81.5,74C 75.6998,76.6562 69.6998,78.8229 63.5,80.5C 65.6539,71.2318 67.1539,61.8985 68,52.5C 58.9192,61.7416 50.4192,71.4083 42.5,81.5C 40.8235,80.8166 40.1568,79.4832 40.5,77.5C 38.8333,77.5 37.1667,77.5 35.5,77.5C 35.5,79.1667 35.5,80.8333 35.5,82.5C 33.5,82.5 31.5,82.5 29.5,82.5C 29.5,80.8333 29.5,79.1667 29.5,77.5C 27.5,77.5 25.5,77.5 23.5,77.5C 23.5,79.1667 23.5,80.8333 23.5,82.5C 21.5,82.5 19.5,82.5 17.5,82.5C 17.5,80.8333 17.5,79.1667 17.5,77.5C 15.5,77.5 13.5,77.5 11.5,77.5C 11.5,79.1667 11.5,80.8333 11.5,82.5C 9.5,82.5 7.5,82.5 5.5,82.5C 5.5,80.8333 5.5,79.1667 5.5,77.5C 3.5,77.5 1.5,77.5 -0.5,77.5C -0.5,51.5 -0.5,25.5 -0.5,-0.5 Z"/></g>
<g><path style="opacity:1" fill="#f4f3f4" fill-opacity="0" d="M 221.5,-0.5 C 230.833,-0.5 240.167,-0.5 249.5,-0.5C 249.5,47.1667 249.5,94.8333 249.5,142.5C 248.5,142.5 247.5,142.5 246.5,142.5C 246.5,140.833 246.5,139.167 246.5,137.5C 246.414,136.504 246.748,135.671 247.5,135C 243.996,131.383 239.996,129.883 235.5,130.5C 233.153,129.393 232.82,127.726 234.5,125.5C 235.043,125.44 235.376,125.107 235.5,124.5C 227.983,122.162 220.317,121.329 212.5,122C 206.967,127.198 201.8,132.698 197,138.5C 195.546,141.071 194.38,143.738 193.5,146.5C 193.918,147.222 194.584,147.722 195.5,148C 194.207,148.49 192.873,148.657 191.5,148.5C 191.5,150.5 191.5,152.5 191.5,154.5C 189.5,154.5 187.5,154.5 185.5,154.5C 185.5,155.833 185.5,157.167 185.5,158.5C 180.93,161.305 176.096,163.639 171,165.5C 170.758,160.95 171.258,156.45 172.5,152C 172.167,150.833 171.833,149.667 171.5,148.5C 158.547,162.416 147.047,177.416 137,193.5C 136.503,195.81 136.337,198.143 136.5,200.5C 138.857,200.663 141.19,200.497 143.5,200C 153.246,194.128 163.246,188.795 173.5,184C 177.06,182.763 180.727,182.263 184.5,182.5C 184.019,192.25 182.853,201.917 181,211.5C 167.155,211.986 153.322,212.986 139.5,214.5C 136,220.156 133.167,226.156 131,232.5C 130.333,235.5 130.333,238.5 131,241.5C 131.816,242.823 132.983,243.489 134.5,243.5C 133.791,244.404 132.791,244.737 131.5,244.5C 131.5,246.167 131.5,247.833 131.5,249.5C 133.167,249.5 134.833,249.5 136.5,249.5C 136.5,247.833 136.5,246.167 136.5,244.5C 138.5,244.5 140.5,244.5 142.5,244.5C 142.5,246.5 142.5,248.5 142.5,250.5C 140.833,250.5 139.167,250.5 137.5,250.5C 137.5,252.167 137.5,253.833 137.5,255.5C 91.5,255.5 45.5,255.5 -0.5,255.5C -0.5,196.167 -0.5,136.833 -0.5,77.5C 1.5,77.5 3.5,77.5 5.5,77.5C 5.5,79.1667 5.5,80.8333 5.5,82.5C 7.5,82.5 9.5,82.5 11.5,82.5C 11.5,80.8333 11.5,79.1667 11.5,77.5C 13.5,77.5 15.5,77.5 17.5,77.5C 17.5,79.1667 17.5,80.8333 17.5,82.5C 19.5,82.5 21.5,82.5 23.5,82.5C 23.5,80.8333 23.5,79.1667 23.5,77.5C 25.5,77.5 27.5,77.5 29.5,77.5C 29.5,79.1667 29.5,80.8333 29.5,82.5C 31.5,82.5 33.5,82.5 35.5,82.5C 35.5,80.8333 35.5,79.1667 35.5,77.5C 37.1667,77.5 38.8333,77.5 40.5,77.5C 40.1568,79.4832 40.8235,80.8166 42.5,81.5C 32.0626,93.441 22.5626,106.108 14,119.5C 7.83333,133.333 11.6667,137.167 25.5,131C 40.7738,123.196 56.1071,115.696 71.5,108.5C 73.2624,108.643 74.9291,108.309 76.5,107.5C 77.4519,109.045 77.7852,110.712 77.5,112.5C 79.1667,112.5 80.8333,112.5 82.5,112.5C 82.1159,110.335 82.7826,108.668 84.5,107.5C 84.8333,108.333 85.1667,109.167 85.5,110C 84.7343,111.797 84.0676,113.631 83.5,115.5C 83.9971,117.818 84.3305,120.152 84.5,122.5C 83.1666,132.501 81.8332,142.501 80.5,152.5C 59.1692,153.058 37.8358,153.724 16.5,154.5C 9.64495,164.549 4.81162,175.549 2,187.5C 0.456917,198.939 5.29025,202.772 16.5,199C 45.8242,191.668 75.1576,184.335 104.5,177C 107.273,174.617 109.439,171.783 111,168.5C 112.394,143.288 115.394,118.288 120,93.5C 122.035,87.3375 124.368,81.3375 127,75.5C 127.634,72.4453 127.468,69.4453 126.5,66.5C 127.914,64.9458 129.581,63.6125 131.5,62.5C 135.574,66.0625 140.074,69.0625 145,71.5C 157.489,64.8385 168.322,56.1719 177.5,45.5C 178.219,47.7638 178.552,50.0971 178.5,52.5C 180.833,52.5 183.167,52.5 185.5,52.5C 185.5,50.8333 185.5,49.1667 185.5,47.5C 187.5,47.5 189.5,47.5 191.5,47.5C 191.5,49.1667 191.5,50.8333 191.5,52.5C 193.5,52.5 195.5,52.5 197.5,52.5C 197.5,50.8333 197.5,49.1667 197.5,47.5C 199.5,47.5 201.5,47.5 203.5,47.5C 203.5,49.1667 203.5,50.8333 203.5,52.5C 205.5,52.5 207.5,52.5 209.5,52.5C 209.5,50.8333 209.5,49.1667 209.5,47.5C 211.5,47.5 213.5,47.5 215.5,47.5C 215.5,49.1667 215.5,50.8333 215.5,52.5C 217.5,52.5 219.5,52.5 221.5,52.5C 222.5,47.5 220.5,45.5 215.5,46.5C 215.5,44.8333 215.5,43.1667 215.5,41.5C 217.5,41.5 219.5,41.5 221.5,41.5C 221.5,39.5 221.5,37.5 221.5,35.5C 219.5,35.5 217.5,35.5 215.5,35.5C 215.5,33.5 215.5,31.5 215.5,29.5C 217.5,29.5 219.5,29.5 221.5,29.5C 221.5,27.5 221.5,25.5 221.5,23.5C 219.5,23.5 217.5,23.5 215.5,23.5C 215.5,21.5 215.5,19.5 215.5,17.5C 217.5,17.5 219.5,17.5 221.5,17.5C 221.5,15.5 221.5,13.5 221.5,11.5C 223.5,11.5 225.5,11.5 227.5,11.5C 227.5,9.5 227.5,7.5 227.5,5.5C 225.5,5.5 223.5,5.5 221.5,5.5C 221.5,3.5 221.5,1.5 221.5,-0.5 Z"/></g>
<g><path style="opacity:1" fill="#100f10"  d="M 155.5,14.5 C 159.325,15.8422 163.325,17.0089 167.5,18C 150.106,28.7102 134.439,41.7102 120.5,57C 115.911,56.091 111.244,55.2577 106.5,54.5C 104.299,53.4336 101.965,52.767 99.5,52.5C 99.8257,49.6887 100.659,47.022 102,44.5C 109.765,32.5005 119.265,22.0005 130.5,13C 138.916,12.3632 147.249,12.8632 155.5,14.5 Z"/></g>
<g><path style="opacity:1" fill="#381f51"  d="M 141.5,32.5 C 141.714,30.8561 141.38,29.3561 140.5,28C 141.784,27.3162 142.951,27.4829 144,28.5C 144.667,27.8333 144.667,27.1667 144,26.5C 141.657,24.6558 139.49,22.6558 137.5,20.5C 135.677,19.2528 133.677,18.5861 131.5,18.5C 131.833,17.8333 132.167,17.1667 132.5,16.5C 140.653,15.0749 148.653,16.0749 156.5,19.5C 151.696,24.0673 146.696,28.4006 141.5,32.5 Z"/></g>
<g><path style="opacity:1" fill="#e6e6e6" fill-opacity="0" d="M 177.5,45.5 C 180.5,41.8254 182.667,37.8254 184,33.5C 178.943,28.8807 173.11,26.3807 166.5,26C 152.662,35.1631 139.995,45.8298 128.5,58C 129.386,59.6147 130.386,61.1147 131.5,62.5C 129.581,63.6125 127.914,64.9458 126.5,66.5C 123.178,61.8108 118.511,59.8108 112.5,60.5C 111.322,59.0014 109.655,58.0014 107.5,57.5C 106.873,56.5832 106.539,55.5832 106.5,54.5C 111.244,55.2577 115.911,56.091 120.5,57C 134.439,41.7102 150.106,28.7102 167.5,18C 163.325,17.0089 159.325,15.8422 155.5,14.5C 157.167,14.5 158.833,14.5 160.5,14.5C 160.5,13.5 160.5,12.5 160.5,11.5C 162.5,11.5 164.5,11.5 166.5,11.5C 165.832,16.1606 167.832,18.1606 172.5,17.5C 172.5,19.5 172.5,21.5 172.5,23.5C 174.5,23.5 176.5,23.5 178.5,23.5C 177.735,28.9064 180.069,30.9064 185.5,29.5C 185.5,31.5 185.5,33.5 185.5,35.5C 187.5,35.5 189.5,35.5 191.5,35.5C 191.5,37.5 191.5,39.5 191.5,41.5C 189.5,41.5 187.5,41.5 185.5,41.5C 185.5,43.1667 185.5,44.8333 185.5,46.5C 182.763,46.5987 180.096,46.2653 177.5,45.5 Z"/></g>
<g><path style="opacity:1" fill="#53275d" d="M 131.5,18.5 C 133.677,18.5861 135.677,19.2528 137.5,20.5C 139.49,22.6558 141.657,24.6558 144,26.5C 144.667,27.1667 144.667,27.8333 144,28.5C 142.951,27.4829 141.784,27.3162 140.5,28C 141.38,29.3561 141.714,30.8561 141.5,32.5C 140.167,33.5 138.833,34.5 137.5,35.5C 137.5,34.5 137.5,33.5 137.5,32.5C 136.448,32.6495 135.448,32.4828 134.5,32C 131.823,28.9908 128.823,26.3242 125.5,24C 127.37,21.9604 129.37,20.1271 131.5,18.5 Z"/></g>
<g><path style="opacity:1" fill="#100f11" d="M 177.5,45.5 C 168.322,56.1719 157.489,64.8385 145,71.5C 140.074,69.0625 135.574,66.0625 131.5,62.5C 130.386,61.1147 129.386,59.6147 128.5,58C 139.995,45.8298 152.662,35.1631 166.5,26C 173.11,26.3807 178.943,28.8807 184,33.5C 182.667,37.8254 180.5,41.8254 177.5,45.5 Z"/></g>
<g><path style="opacity:1" fill="#703468" d="M 132.5,16.5 C 132.167,17.1667 131.833,17.8333 131.5,18.5C 129.37,20.1271 127.37,21.9604 125.5,24C 128.823,26.3242 131.823,28.9908 134.5,32C 135.448,32.4828 136.448,32.6495 137.5,32.5C 137.5,33.5 137.5,34.5 137.5,35.5C 134.167,39.5 130.5,43.1667 126.5,46.5C 126.461,45.4168 126.127,44.4168 125.5,43.5C 126.729,42.7189 128.062,42.2189 129.5,42C 128.833,41.6667 128.167,41.3333 127.5,41C 128.925,39.6381 129.758,38.1381 130,36.5C 128.984,35.3659 128.317,35.6992 128,37.5C 127.667,36.5 127.333,35.5 127,34.5C 124.78,33.013 122.78,31.3463 121,29.5C 119.357,30.3146 117.857,31.3146 116.5,32.5C 120.833,26.1667 126.167,20.8333 132.5,16.5 Z"/></g>
<g><path style="opacity:1" fill="#29174b" d="M 168.5,49.5 C 168.64,47.8762 167.973,46.7096 166.5,46C 166.833,45.6667 167.167,45.3333 167.5,45C 164.044,42.2462 162.044,38.7462 161.5,34.5C 163.74,32.0343 166.407,30.0343 169.5,28.5C 172.871,30.8458 176.204,33.1792 179.5,35.5C 176.923,41.0712 173.256,45.7379 168.5,49.5 Z"/></g>
<g><path style="opacity:1" fill="#9d4577" d="M 126.5,46.5 C 124.395,49.7768 121.561,52.1101 118,53.5C 113.202,52.2583 108.369,51.2583 103.5,50.5C 106.252,43.4065 110.585,37.4065 116.5,32.5C 117.857,31.3146 119.357,30.3146 121,29.5C 122.78,31.3463 124.78,33.013 127,34.5C 127.333,35.5 127.667,36.5 128,37.5C 128.317,35.6992 128.984,35.3659 130,36.5C 129.758,38.1381 128.925,39.6381 127.5,41C 128.167,41.3333 128.833,41.6667 129.5,42C 128.062,42.2189 126.729,42.7189 125.5,43.5C 126.127,44.4168 126.461,45.4168 126.5,46.5 Z"/></g>
<g><path style="opacity:1" fill="#54285d" d="M 161.5,34.5 C 162.044,38.7462 164.044,42.2462 167.5,45C 167.167,45.3333 166.833,45.6667 166.5,46C 167.973,46.7096 168.64,47.8762 168.5,49.5C 166.12,52.8805 163.12,55.5472 159.5,57.5C 157.25,55.756 155.083,53.756 153,51.5C 152.383,50.5509 152.549,49.7175 153.5,49C 151.114,48.7165 150.448,47.7165 151.5,46C 150.833,45.6667 150.167,45.3333 149.5,45C 150.381,44.2917 151.047,43.4584 151.5,42.5C 154.46,39.3552 157.793,36.6885 161.5,34.5 Z"/></g>
<g><path style="opacity:1" fill="#984878" d="M 147.5,45.5 C 145.106,47.8906 143.106,50.5573 141.5,53.5C 143.454,57.766 146.121,61.4326 149.5,64.5C 148.082,66.7082 146.082,67.5415 143.5,67C 139.311,64.9127 135.977,61.9127 133.5,58C 134.439,56.0561 135.773,54.3894 137.5,53C 140.729,50.2589 144.062,47.7589 147.5,45.5 Z"/></g>
<g><path style="opacity:1" fill="#7a366b" d="M 151.5,42.5 C 151.047,43.4584 150.381,44.2917 149.5,45C 150.167,45.3333 150.833,45.6667 151.5,46C 150.448,47.7165 151.114,48.7165 153.5,49C 152.549,49.7175 152.383,50.5509 153,51.5C 155.083,53.756 157.25,55.756 159.5,57.5C 156.725,60.6046 153.392,62.9379 149.5,64.5C 146.121,61.4326 143.454,57.766 141.5,53.5C 143.106,50.5573 145.106,47.8906 147.5,45.5C 148.262,43.7376 149.596,42.7376 151.5,42.5 Z"/></g>
<g><path style="opacity:1" fill="#121012" d="M 112.5,60.5 C 118.511,59.8108 123.178,61.8108 126.5,66.5C 127.468,69.4453 127.634,72.4453 127,75.5C 124.368,81.3375 122.035,87.3375 120,93.5C 115.394,118.288 112.394,143.288 111,168.5C 109.439,171.783 107.273,174.617 104.5,177C 75.1576,184.335 45.8242,191.668 16.5,199C 5.29025,202.772 0.456917,198.939 2,187.5C 4.81162,175.549 9.64495,164.549 16.5,154.5C 37.8358,153.724 59.1692,153.058 80.5,152.5C 81.8332,142.501 83.1666,132.501 84.5,122.5C 86.0784,117.417 86.7451,112.084 86.5,106.5C 81.2793,105.675 76.2793,106.341 71.5,108.5C 56.1071,115.696 40.7738,123.196 25.5,131C 11.6667,137.167 7.83333,133.333 14,119.5C 22.5626,106.108 32.0626,93.441 42.5,81.5C 50.4192,71.4083 58.9192,61.7416 68,52.5C 67.1539,61.8985 65.6539,71.2318 63.5,80.5C 69.6998,78.8229 75.6998,76.6562 81.5,74C 91.1262,67.8732 101.46,63.3732 112.5,60.5 Z"/></g>
<g><path style="opacity:1" fill="#27164b" d="M 117.5,88.5 C 116.778,88.9175 116.278,89.5842 116,90.5C 115.667,89.8333 115.333,89.1667 115,88.5C 114.108,92.1732 112.608,92.3399 110.5,89C 107.206,89.5511 104.206,88.5511 101.5,86C 99.1667,85.6667 96.8333,85.3333 94.5,85C 89.9713,82.7338 85.3047,80.9005 80.5,79.5C 78.4229,80.9371 76.0895,81.6038 73.5,81.5C 84.6196,75.7747 95.953,70.2747 107.5,65C 113.339,62.3086 118.506,63.142 123,67.5C 123.505,75.1429 121.672,82.1429 117.5,88.5 Z"/></g>
<g><path style="opacity:1" fill="#492459" d="M 114.5,103.5 C 113.607,110.71 112.274,117.71 110.5,124.5C 110.712,120.985 110.712,117.652 110.5,114.5C 109.295,112.862 107.962,112.529 106.5,113.5C 105.252,112.96 104.085,112.293 103,111.5C 102.667,111.833 102.333,112.167 102,112.5C 97.8631,111.791 94.1965,110.124 91,107.5C 90.6667,111.5 90.3333,115.5 90,119.5C 89.7216,120.416 89.2216,121.082 88.5,121.5C 89.6564,115.473 89.6564,109.473 88.5,103.5C 86.2186,100.307 83.2186,99.6404 79.5,101.5C 78.3527,101.182 77.5194,100.516 77,99.5C 76.586,99.9574 76.086,100.291 75.5,100.5C 73.0084,98.8188 70.5084,98.1521 68,98.5C 65.2047,96.6154 62.3713,94.9488 59.5,93.5C 56.2152,92.6764 52.8818,92.1764 49.5,92C 48.0325,90.9025 47.1992,89.4025 47,87.5C 45.0119,91.1172 43.5119,91.1172 42.5,87.5C 44.595,85.2406 47.095,83.5739 50,82.5C 59.4351,87.6325 69.6017,91.1325 80.5,93C 82.7621,94.0468 84.9288,95.2135 87,96.5C 87.8732,96.2645 88.7065,95.9312 89.5,95.5C 91.1667,96.8333 92.8333,98.1667 94.5,99.5C 97.3203,99.6536 100.154,99.6536 103,99.5C 104.46,101.422 106.127,102.089 108,101.5C 109.397,104.559 111.563,105.225 114.5,103.5 Z"/></g>
<g><path style="opacity:1" fill="#3c2054" d="M 73.5,81.5 C 76.0895,81.6038 78.4229,80.9371 80.5,79.5C 85.3047,80.9005 89.9713,82.7338 94.5,85C 96.8333,85.3333 99.1667,85.6667 101.5,86C 104.206,88.5511 107.206,89.5511 110.5,89C 112.608,92.3399 114.108,92.1732 115,88.5C 115.333,89.1667 115.667,89.8333 116,90.5C 116.278,89.5842 116.778,88.9175 117.5,88.5C 116.392,93.4836 115.392,98.4836 114.5,103.5C 111.563,105.225 109.397,104.559 108,101.5C 106.127,102.089 104.46,101.422 103,99.5C 100.154,99.6536 97.3203,99.6536 94.5,99.5C 92.8333,98.1667 91.1667,96.8333 89.5,95.5C 88.7065,95.9312 87.8732,96.2645 87,96.5C 84.9288,95.2135 82.7621,94.0468 80.5,93C 69.6017,91.1325 59.4351,87.6325 50,82.5C 47.095,83.5739 44.595,85.2406 42.5,87.5C 48.7735,79.2216 55.4402,71.2216 62.5,63.5C 62.3171,68.3001 61.4838,73.3001 60,78.5C 59.3333,80.5 59.3333,82.5 60,84.5C 60.7247,85.0585 61.5581,85.3918 62.5,85.5C 66.0746,83.8778 69.7412,82.5445 73.5,81.5 Z"/></g>
<g><path style="opacity:1" fill="#5a2b5f" d="M 42.5,87.5 C 43.5119,91.1172 45.0119,91.1172 47,87.5C 47.1992,89.4025 48.0325,90.9025 49.5,92C 52.8818,92.1764 56.2152,92.6764 59.5,93.5C 62.3713,94.9488 65.2047,96.6154 68,98.5C 70.5084,98.1521 73.0084,98.8188 75.5,100.5C 76.086,100.291 76.586,99.9574 77,99.5C 77.5194,100.516 78.3527,101.182 79.5,101.5C 83.2186,99.6404 86.2186,100.307 88.5,103.5C 84.554,102.473 80.554,102.306 76.5,103C 67.4786,106.846 58.4786,110.679 49.5,114.5C 46.6178,115.869 44.1178,115.202 42,112.5C 41.6924,113.308 41.1924,113.975 40.5,114.5C 39.3044,114.154 39.3044,113.654 40.5,113C 36.9461,110.793 33.2795,109.96 29.5,110.5C 28.8333,109.833 28.1667,109.167 27.5,108.5C 26.0546,110.394 24.3879,112.06 22.5,113.5C 28.0249,103.973 34.6916,95.3059 42.5,87.5 Z"/></g>
<g><path style="opacity:1" fill="#dcdcdc" fill-opacity="0" d="M 84.5,122.5 C 84.3305,120.152 83.9971,117.818 83.5,115.5C 84.0676,113.631 84.7343,111.797 85.5,110C 85.1667,109.167 84.8333,108.333 84.5,107.5C 82.7826,108.668 82.1159,110.335 82.5,112.5C 80.8333,112.5 79.1667,112.5 77.5,112.5C 77.7852,110.712 77.4519,109.045 76.5,107.5C 74.9291,108.309 73.2624,108.643 71.5,108.5C 76.2793,106.341 81.2793,105.675 86.5,106.5C 86.7451,112.084 86.0784,117.417 84.5,122.5 Z"/></g>
<g><path style="opacity:1" fill="#773a6b" d="M 49.5,114.5 C 38.723,121.721 27.0563,127.054 14.5,130.5C 15.3005,123.901 17.9672,118.235 22.5,113.5C 24.3879,112.06 26.0546,110.394 27.5,108.5C 28.1667,109.167 28.8333,109.833 29.5,110.5C 33.2795,109.96 36.9461,110.793 40.5,113C 39.3044,113.654 39.3044,114.154 40.5,114.5C 41.1924,113.975 41.6924,113.308 42,112.5C 44.1178,115.202 46.6178,115.869 49.5,114.5 Z"/></g>
<g><path style="opacity:1" fill="#612d63" d="M 110.5,124.5 C 110.747,127.939 110.414,131.272 109.5,134.5C 106.668,134.476 104.001,133.309 101.5,131C 98.4748,130.639 95.4748,130.139 92.5,129.5C 91.3527,129.182 90.5194,128.516 90,127.5C 89.7679,128.737 89.2679,129.737 88.5,130.5C 88.7373,129.209 88.404,128.209 87.5,127.5C 87.5172,125.435 87.8505,123.435 88.5,121.5C 89.2216,121.082 89.7216,120.416 90,119.5C 90.3333,115.5 90.6667,111.5 91,107.5C 94.1965,110.124 97.8631,111.791 102,112.5C 102.333,112.167 102.667,111.833 103,111.5C 104.085,112.293 105.252,112.96 106.5,113.5C 107.962,112.529 109.295,112.862 110.5,114.5C 110.712,117.652 110.712,120.985 110.5,124.5 Z"/></g>
<g><path style="opacity:1" fill="#1b181b" d="M 234.5,125.5 C 224.53,131.953 215.53,139.786 207.5,149C 203.523,149.254 199.856,148.421 196.5,146.5C 195.5,146.5 194.5,146.5 193.5,146.5C 194.38,143.738 195.546,141.071 197,138.5C 201.8,132.698 206.967,127.198 212.5,122C 220.317,121.329 227.983,122.162 235.5,124.5C 235.376,125.107 235.043,125.44 234.5,125.5 Z"/></g>
<g><path style="opacity:1" fill="#3d2052" d="M 218.5,134.5 C 215.667,132.522 212.667,130.689 209.5,129C 211.041,127.629 212.375,126.129 213.5,124.5C 214.492,122.974 215.992,122.307 218,122.5C 221.985,122.954 225.818,123.954 229.5,125.5C 226.11,128.895 222.444,131.895 218.5,134.5 Z"/></g>
<g><path style="opacity:1" fill="#18161a" d="M 246.5,137.5 C 241.167,144.833 234.833,151.167 227.5,156.5C 221.095,158.82 216.095,156.82 212.5,150.5C 219.595,143.064 227.262,136.398 235.5,130.5C 239.996,129.883 243.996,131.383 247.5,135C 246.748,135.671 246.414,136.504 246.5,137.5 Z"/></g>
<g><path style="opacity:1" fill="#271749" d="M 238.5,143.5 C 236.833,140.5 234.5,138.167 231.5,136.5C 234.675,130.914 238.675,130.247 243.5,134.5C 243.757,138.305 242.09,141.305 238.5,143.5 Z"/></g>
<g><path style="opacity:1" fill="#7e396d" d="M 213.5,124.5 C 212.375,126.129 211.041,127.629 209.5,129C 212.667,130.689 215.667,132.522 218.5,134.5C 216.5,137.167 214.167,139.5 211.5,141.5C 208.375,141.182 205.542,140.182 203,138.5C 203.134,136.811 203.634,135.144 204.5,133.5C 206.5,129.5 209.5,126.5 213.5,124.5 Z"/></g>
<g><path style="opacity:1" fill="#a34f7f"    d="M 204.5,133.5 C 203.634,135.144 203.134,136.811 203,138.5C 205.542,140.182 208.375,141.182 211.5,141.5C 208.06,147.476 203.06,149.143 196.5,146.5C 195.697,145.577 195.53,144.577 196,143.5C 198.614,139.91 201.448,136.576 204.5,133.5 Z"/></g>
<g><path style="opacity:1" fill="#f4f4f4" fill-opacity="0" d="M 246.5,137.5 C 246.5,139.167 246.5,140.833 246.5,142.5C 247.5,142.5 248.5,142.5 249.5,142.5C 249.5,180.167 249.5,217.833 249.5,255.5C 212.167,255.5 174.833,255.5 137.5,255.5C 137.5,253.833 137.5,252.167 137.5,250.5C 139.167,250.5 140.833,250.5 142.5,250.5C 142.5,248.5 142.5,246.5 142.5,244.5C 140.5,244.5 138.5,244.5 136.5,244.5C 136.5,246.167 136.5,247.833 136.5,249.5C 134.833,249.5 133.167,249.5 131.5,249.5C 131.5,247.833 131.5,246.167 131.5,244.5C 132.791,244.737 133.791,244.404 134.5,243.5C 155.184,238.441 175.851,233.274 196.5,228C 198.617,226.269 200.117,224.102 201,221.5C 202.217,215.899 202.717,210.232 202.5,204.5C 203.577,198.688 204.243,192.688 204.5,186.5C 205.223,178.143 207.223,170.143 210.5,162.5C 215.609,160.804 220.943,159.47 226.5,158.5C 226.863,157.817 227.196,157.15 227.5,156.5C 234.833,151.167 241.167,144.833 246.5,137.5 Z"/></g>
<g><path style="opacity:1" fill="#74326a" d="M 109.5,134.5 C 109.5,135.5 109.5,136.5 109.5,137.5C 108.676,141.312 108.176,145.312 108,149.5C 106.33,147.302 104.33,146.968 102,148.5C 101.781,147.062 101.281,145.729 100.5,144.5C 97.2823,144.707 94.1156,145.04 91,145.5C 89.513,144.747 89.3463,143.914 90.5,143C 89.5509,142.383 88.7175,142.549 88,143.5C 87.4657,139.141 87.6324,134.808 88.5,130.5C 89.2679,129.737 89.7679,128.737 90,127.5C 90.5194,128.516 91.3527,129.182 92.5,129.5C 95.4748,130.139 98.4748,130.639 101.5,131C 104.001,133.309 106.668,134.476 109.5,134.5 Z"/></g>
<g><path style="opacity:1" fill="#e3e3e3" fill-opacity="0" d="M 234.5,125.5 C 232.82,127.726 233.153,129.393 235.5,130.5C 227.262,136.398 219.595,143.064 212.5,150.5C 216.095,156.82 221.095,158.82 227.5,156.5C 227.196,157.15 226.863,157.817 226.5,158.5C 220.943,159.47 215.609,160.804 210.5,162.5C 211.046,154.02 207.046,150.854 198.5,153C 194.145,154.846 189.812,156.679 185.5,158.5C 185.5,157.167 185.5,155.833 185.5,154.5C 187.5,154.5 189.5,154.5 191.5,154.5C 191.5,152.5 191.5,150.5 191.5,148.5C 192.873,148.657 194.207,148.49 195.5,148C 194.584,147.722 193.918,147.222 193.5,146.5C 194.5,146.5 195.5,146.5 196.5,146.5C 199.856,148.421 203.523,149.254 207.5,149C 215.53,139.786 224.53,131.953 234.5,125.5 Z"/></g>
<g><path style="opacity:1" fill="#4f275b"  d="M 231.5,136.5 C 234.5,138.167 236.833,140.5 238.5,143.5C 237.167,145.5 235.5,147.167 233.5,148.5C 231.451,145.45 228.784,143.117 225.5,141.5C 226.891,139.11 228.891,137.443 231.5,136.5 Z"/></g>
<g><path style="opacity:1" fill="#813d6f"  d="M 225.5,141.5 C 228.784,143.117 231.451,145.45 233.5,148.5C 230.204,152.996 225.87,155.496 220.5,156C 218.024,154.691 216.024,152.858 214.5,150.5C 217.915,147.075 221.581,144.075 225.5,141.5 Z"/></g>
<g><path style="opacity:1" fill="#a36085" d="M 83.5,156.5 C 74.3483,157.494 65.015,157.827 55.5,157.5C 43.8286,157.333 32.1619,157.5 20.5,158C 19.6266,159.045 18.6266,159.878 17.5,160.5C 17.5106,158.983 18.1772,157.816 19.5,157C 40.8307,156.5 62.1641,156.333 83.5,156.5 Z"/></g>
<g><path style="opacity:1" fill="#8e3b72"  d="M 87.5,127.5 C 88.404,128.209 88.7373,129.209 88.5,130.5C 87.6324,134.808 87.4657,139.141 88,143.5C 88.7175,142.549 89.5509,142.383 90.5,143C 89.3463,143.914 89.513,144.747 91,145.5C 94.1156,145.04 97.2823,144.707 100.5,144.5C 101.281,145.729 101.781,147.062 102,148.5C 104.33,146.968 106.33,147.302 108,149.5C 108.176,145.312 108.676,141.312 109.5,137.5C 109.666,146.173 109.5,154.84 109,163.5C 108.626,165.491 107.793,167.158 106.5,168.5C 105.518,169.141 104.518,169.807 103.5,170.5C 102.808,169.975 102.308,169.308 102,168.5C 101.161,169.624 99.9945,170.291 98.5,170.5C 95.92,169.767 93.42,168.767 91,167.5C 90.6667,167.833 90.3333,168.167 90,168.5C 89.5814,167.328 88.9147,166.328 88,165.5C 86.3005,166.406 84.4672,166.739 82.5,166.5C 82.9111,163.724 82.0777,163.057 80,164.5C 76.6169,163.186 73.1169,162.353 69.5,162C 70.5,161.667 71.5,161.333 72.5,161C 66.5143,160.574 60.5143,159.741 54.5,158.5C 55.1667,158.5 55.5,158.167 55.5,157.5C 65.015,157.827 74.3483,157.494 83.5,156.5C 84.5777,146.783 85.9111,137.116 87.5,127.5 Z"/></g>
<g><path style="opacity:1" fill="#9e4177"   d="M 54.5,158.5 C 60.5143,159.741 66.5143,160.574 72.5,161C 71.5,161.333 70.5,161.667 69.5,162C 73.1169,162.353 76.6169,163.186 80,164.5C 82.0777,163.057 82.9111,163.724 82.5,166.5C 84.4672,166.739 86.3005,166.406 88,165.5C 88.9147,166.328 89.5814,167.328 90,168.5C 90.3333,168.167 90.6667,167.833 91,167.5C 93.42,168.767 95.92,169.767 98.5,170.5C 99.9945,170.291 101.161,169.624 102,168.5C 102.308,169.308 102.808,169.975 103.5,170.5C 104.518,169.807 105.518,169.141 106.5,168.5C 105.073,171.764 102.739,174.264 99.5,176C 87.1737,178.666 74.8404,181.166 62.5,183.5C 66.2915,182.047 70.2915,180.881 74.5,180C 75.5,179.167 76.5,178.333 77.5,177.5C 77.1667,177.167 76.8333,176.833 76.5,176.5C 71.4791,175.525 66.8125,173.692 62.5,171C 59.9009,170.231 57.4009,170.398 55,171.5C 50.8065,167.367 45.6398,165.533 39.5,166C 41.9011,165.195 41.7344,164.362 39,163.5C 36.3787,163.704 33.5453,163.704 30.5,163.5C 30.67,162.178 30.3366,161.011 29.5,160C 26.8333,159.667 24.1667,159.333 21.5,159C 32.495,158.5 43.495,158.333 54.5,158.5 Z"/></g>
<g><path style="opacity:1" fill="#af668d" d="M 16.5,162.5 C 11.8598,171.951 8.1931,181.785 5.5,192C 5.4121,194.744 6.74543,195.91 9.5,195.5C 13.1486,194.67 16.8153,194.004 20.5,193.5C 15.6444,196.253 10.4777,196.92 5,195.5C 4.30581,189.568 5.30581,183.901 8,178.5C 10.19,172.711 13.0233,167.378 16.5,162.5 Z"/></g>
<g><path style="opacity:1" fill="#af447b"  d="M 55.5,157.5 C 55.5,158.167 55.1667,158.5 54.5,158.5C 43.495,158.333 32.495,158.5 21.5,159C 24.1667,159.333 26.8333,159.667 29.5,160C 30.3366,161.011 30.67,162.178 30.5,163.5C 33.5453,163.704 36.3787,163.704 39,163.5C 41.7344,164.362 41.9011,165.195 39.5,166C 45.6398,165.533 50.8065,167.367 55,171.5C 57.4009,170.398 59.9009,170.231 62.5,171C 66.8125,173.692 71.4791,175.525 76.5,176.5C 76.8333,176.833 77.1667,177.167 77.5,177.5C 76.5,178.333 75.5,179.167 74.5,180C 70.2915,180.881 66.2915,182.047 62.5,183.5C 48.8153,187.707 34.8153,191.041 20.5,193.5C 16.8153,194.004 13.1486,194.67 9.5,195.5C 6.74543,195.91 5.4121,194.744 5.5,192C 8.1931,181.785 11.8598,171.951 16.5,162.5C 16.3284,161.508 16.6618,160.842 17.5,160.5C 18.6266,159.878 19.6266,159.045 20.5,158C 32.1619,157.5 43.8286,157.333 55.5,157.5 Z"/></g>
<g><path style="opacity:1" fill="#161416" d="M 185.5,158.5 C 189.812,156.679 194.145,154.846 198.5,153C 207.046,150.854 211.046,154.02 210.5,162.5C 207.223,170.143 205.223,178.143 204.5,186.5C 202.85,192.25 202.184,198.25 202.5,204.5C 202.717,210.232 202.217,215.899 201,221.5C 200.117,224.102 198.617,226.269 196.5,228C 175.851,233.274 155.184,238.441 134.5,243.5C 132.983,243.489 131.816,242.823 131,241.5C 130.333,238.5 130.333,235.5 131,232.5C 133.167,226.156 136,220.156 139.5,214.5C 153.322,212.986 167.155,211.986 181,211.5C 182.853,201.917 184.019,192.25 184.5,182.5C 180.727,182.263 177.06,182.763 173.5,184C 163.246,188.795 153.246,194.128 143.5,200C 141.19,200.497 138.857,200.663 136.5,200.5C 136.337,198.143 136.503,195.81 137,193.5C 147.047,177.416 158.547,162.416 171.5,148.5C 171.833,149.667 172.167,150.833 172.5,152C 171.258,156.45 170.758,160.95 171,165.5C 176.096,163.639 180.93,161.305 185.5,158.5 Z"/></g>
<g><path style="opacity:1" fill="#4f265b"  d="M 201.5,185.5 C 201.265,192.354 200.598,199.021 199.5,205.5C 199.826,201.116 199.492,196.783 198.5,192.5C 196.714,190.979 194.881,190.646 193,191.5C 192.085,190.672 191.419,189.672 191,188.5C 190.692,189.308 190.192,189.975 189.5,190.5C 188.833,187.358 188.166,184.358 187.5,181.5C 185.841,180.03 183.841,179.363 181.5,179.5C 177.754,180.206 174.088,181.206 170.5,182.5C 166.083,183.872 161.749,185.539 157.5,187.5C 155.128,186.897 152.961,185.897 151,184.5C 149.535,185.33 148.035,185.496 146.5,185C 149.802,181.544 152.469,177.711 154.5,173.5C 155.08,171.251 156.413,169.585 158.5,168.5C 160.976,167.065 163.31,167.565 165.5,170C 169.177,170.108 172.843,170.108 176.5,170C 184.532,173.441 192.865,175.941 201.5,177.5C 201.5,180.167 201.5,182.833 201.5,185.5 Z"/></g>
<g><path style="opacity:1" fill="#341c50"  d="M 185.5,162.5 C 191.783,161.645 198.116,162.145 204.5,164C 205.337,165.011 205.67,166.178 205.5,167.5C 204.154,173.613 202.821,179.613 201.5,185.5C 201.5,182.833 201.5,180.167 201.5,177.5C 192.865,175.941 184.532,173.441 176.5,170C 172.843,170.108 169.177,170.108 165.5,170C 163.31,167.565 160.976,167.065 158.5,168.5C 161.409,164.379 164.575,160.379 168,156.5C 168.157,159.72 167.657,162.887 166.5,166C 166.437,168.942 167.77,169.942 170.5,169C 175.299,166.265 180.299,164.098 185.5,162.5 Z"/></g>
<g><path style="opacity:1" fill="#161043"  d="M 205.5,167.5 C 205.67,166.178 205.337,165.011 204.5,164C 198.116,162.145 191.783,161.645 185.5,162.5C 191.462,158.015 198.129,155.515 205.5,155C 207.357,156.182 208.357,157.849 208.5,160C 207.869,162.746 206.869,165.246 205.5,167.5 Z"/></g>
<g><path style="opacity:1" fill="#753d6b"  d="M 154.5,173.5 C 152.469,177.711 149.802,181.544 146.5,185C 148.035,185.496 149.535,185.33 151,184.5C 152.961,185.897 155.128,186.897 157.5,187.5C 161.749,185.539 166.083,183.872 170.5,182.5C 160.353,188.074 150.02,193.407 139.5,198.5C 139.167,198 138.833,197.5 138.5,197C 142.49,188.164 147.824,180.331 154.5,173.5 Z"/></g>
<g><path style="opacity:1" fill="#7f7f7f" fill-opacity="0" d="M 204.5,186.5 C 204.243,192.688 203.577,198.688 202.5,204.5C 202.184,198.25 202.85,192.25 204.5,186.5 Z"/></g>
<g><path style="opacity:1" fill="#703567" d="M 187.5,181.5 C 188.166,184.358 188.833,187.358 189.5,190.5C 190.192,189.975 190.692,189.308 191,188.5C 191.419,189.672 192.085,190.672 193,191.5C 194.881,190.646 196.714,190.979 198.5,192.5C 199.492,196.783 199.826,201.116 199.5,205.5C 199.5,205.833 199.5,206.167 199.5,206.5C 198.732,207.263 198.232,208.263 198,209.5C 194.488,209.374 190.988,208.374 187.5,206.5C 186.749,205.624 186.249,204.624 186,203.5C 185.501,207.486 185.334,211.486 185.5,215.5C 184.5,215.5 183.5,215.5 182.5,215.5C 175.167,215.5 167.833,215.5 160.5,215.5C 167.982,214.508 175.648,214.175 183.5,214.5C 184.835,203.487 186.169,192.487 187.5,181.5 Z"/></g>
<g><path style="opacity:1" fill="#943e74" d="M 199.5,206.5 C 199.666,211.179 199.499,215.845 199,220.5C 198.214,223.583 196.381,225.749 193.5,227C 187.239,228.619 180.905,229.786 174.5,230.5C 177.625,229.9 177.958,228.733 175.5,227C 176.167,226.667 176.833,226.333 177.5,226C 173.769,226.11 170.103,225.277 166.5,223.5C 166.5,222.5 166.5,221.5 166.5,220.5C 170.29,220.992 170.956,220.159 168.5,218C 159.84,217.5 151.173,217.334 142.5,217.5C 155.833,216.833 169.167,216.167 182.5,215.5C 183.5,215.5 184.5,215.5 185.5,215.5C 185.334,211.486 185.501,207.486 186,203.5C 186.249,204.624 186.749,205.624 187.5,206.5C 190.988,208.374 194.488,209.374 198,209.5C 198.232,208.263 198.732,207.263 199.5,206.5 Z"/></g>
<g><path style="opacity:1" fill="#b2678f"  d="M 160.5,215.5 C 167.833,215.5 175.167,215.5 182.5,215.5C 169.167,216.167 155.833,216.833 142.5,217.5C 138.063,224.139 135.397,231.472 134.5,239.5C 146.433,236.517 158.433,233.85 170.5,231.5C 158.452,235.261 146.119,238.261 133.5,240.5C 133.995,231.665 136.661,223.498 141.5,216C 147.825,215.5 154.158,215.334 160.5,215.5 Z"/></g>
<g><path style="opacity:1" fill="#ac437a"  d="M 142.5,217.5 C 151.173,217.334 159.84,217.5 168.5,218C 170.956,220.159 170.29,220.992 166.5,220.5C 166.5,221.5 166.5,222.5 166.5,223.5C 170.103,225.277 173.769,226.11 177.5,226C 176.833,226.333 176.167,226.667 175.5,227C 177.958,228.733 177.625,229.9 174.5,230.5C 173.432,231.434 172.099,231.768 170.5,231.5C 158.433,233.85 146.433,236.517 134.5,239.5C 135.397,231.472 138.063,224.139 142.5,217.5 Z"/></g>
</svg>
